<mxfile host="app.diagrams.net" agent="Mozilla/5.0 (Windows NT 10.0; Win64; x64) AppleWebKit/537.36 (KHTML, like Gecko) Chrome/133.0.0.0 Safari/537.36 Edg/133.0.0.0" version="26.0.16">
  <diagram name="Page-1" id="2aB6eJUe-trxnjExPYoS">
    <mxGraphModel dx="1366" dy="872" grid="0" gridSize="10" guides="1" tooltips="1" connect="1" arrows="1" fold="1" page="1" pageScale="1" pageWidth="850" pageHeight="1100" math="0" shadow="0">
      <root>
        <mxCell id="0" />
        <mxCell id="1" parent="0" />
        <mxCell id="G27KxX_hMxzYAapSW3-k-1" value="Rollback Strategy - INT environment" style="shape=table;childLayout=tableLayout;startSize=40;collapsible=0;recursiveResize=0;expand=0;fontSize=16;fontStyle=1;fillColor=#647687;fontColor=#ffffff;strokeColor=#314354;" vertex="1" parent="1">
          <mxGeometry x="100" y="79" width="919.6259585293853" height="987.6820276433768" as="geometry" />
        </mxCell>
        <mxCell id="G27KxX_hMxzYAapSW3-k-2" value="R&amp;D DevOps Team" style="shape=tableRow;horizontal=0;swimlaneHead=0;swimlaneBody=0;top=0;left=0;strokeColor=#6c8ebf;bottom=0;right=0;dropTarget=0;fontStyle=0;fillColor=#dae8fc;points=[[0,0.5],[1,0.5]];portConstraint=eastwest;startSize=40;collapsible=0;recursiveResize=0;expand=0;fontSize=16;flipV=0;flipH=0;verticalAlign=bottom;" vertex="1" parent="G27KxX_hMxzYAapSW3-k-1">
          <mxGeometry y="40" width="919.6259585293853" height="343" as="geometry" />
        </mxCell>
        <mxCell id="G27KxX_hMxzYAapSW3-k-3" value="Dev Prod" style="swimlane;swimlaneHead=0;swimlaneBody=0;fontStyle=0;strokeColor=#6c8ebf;connectable=0;fillColor=#dae8fc;startSize=30;collapsible=0;recursiveResize=0;expand=0;fontSize=16;verticalAlign=bottom;" vertex="1" parent="G27KxX_hMxzYAapSW3-k-2">
          <mxGeometry x="40" width="270" height="343" as="geometry">
            <mxRectangle width="270" height="343" as="alternateBounds" />
          </mxGeometry>
        </mxCell>
        <mxCell id="G27KxX_hMxzYAapSW3-k-14" value="INT: Non-Prod" style="swimlane;swimlaneHead=0;swimlaneBody=0;fontStyle=0;strokeColor=#6c8ebf;connectable=0;fillColor=#dae8fc;startSize=30;collapsible=0;recursiveResize=0;expand=0;fontSize=16;verticalAlign=bottom;" vertex="1" parent="G27KxX_hMxzYAapSW3-k-2">
          <mxGeometry x="310" width="300" height="343" as="geometry">
            <mxRectangle width="300" height="343" as="alternateBounds" />
          </mxGeometry>
        </mxCell>
        <mxCell id="G27KxX_hMxzYAapSW3-k-19" value="INT: Prod" style="swimlane;swimlaneHead=0;swimlaneBody=0;fontStyle=0;strokeColor=#6c8ebf;connectable=0;fillColor=#dae8fc;startSize=30;collapsible=0;recursiveResize=0;expand=0;fontSize=16;verticalAlign=bottom;" vertex="1" parent="G27KxX_hMxzYAapSW3-k-2">
          <mxGeometry x="610" width="310" height="343" as="geometry">
            <mxRectangle width="310" height="343" as="alternateBounds" />
          </mxGeometry>
        </mxCell>
        <mxCell id="G27KxX_hMxzYAapSW3-k-65" value="N-1 version (as in production)&amp;nbsp;" style="html=1;dropTarget=0;whiteSpace=wrap;fillColor=#fff2cc;strokeColor=#d6b656;" vertex="1" parent="G27KxX_hMxzYAapSW3-k-19">
          <mxGeometry x="25" y="313" width="260" height="20" as="geometry" />
        </mxCell>
        <mxCell id="G27KxX_hMxzYAapSW3-k-22" value="R&amp;D QA" style="shape=tableRow;horizontal=0;swimlaneHead=0;swimlaneBody=0;top=0;left=0;strokeColor=#6c8ebf;bottom=0;right=0;dropTarget=0;fontStyle=0;fillColor=#dae8fc;points=[[0,0.5],[1,0.5]];portConstraint=eastwest;startSize=40;collapsible=0;recursiveResize=0;expand=0;fontSize=16;flipV=0;flipH=0;verticalAlign=bottom;" vertex="1" parent="G27KxX_hMxzYAapSW3-k-1">
          <mxGeometry y="383" width="919.6259585293853" height="174" as="geometry" />
        </mxCell>
        <mxCell id="G27KxX_hMxzYAapSW3-k-23" style="swimlane;swimlaneHead=0;swimlaneBody=0;fontStyle=0;connectable=0;strokeColor=#6c8ebf;fillColor=#dae8fc;startSize=0;collapsible=0;recursiveResize=0;expand=0;fontSize=16;verticalAlign=bottom;" vertex="1" parent="G27KxX_hMxzYAapSW3-k-22">
          <mxGeometry x="40" width="270" height="174" as="geometry">
            <mxRectangle width="270" height="174" as="alternateBounds" />
          </mxGeometry>
        </mxCell>
        <mxCell id="G27KxX_hMxzYAapSW3-k-24" value="Feature Testing" style="rounded=1;whiteSpace=wrap;html=1;absoluteArcSize=1;arcSize=14;strokeWidth=2;" vertex="1" parent="G27KxX_hMxzYAapSW3-k-23">
          <mxGeometry x="37" y="21" width="100" height="50" as="geometry" />
        </mxCell>
        <mxCell id="G27KxX_hMxzYAapSW3-k-25" style="swimlane;swimlaneHead=0;swimlaneBody=0;fontStyle=0;connectable=0;strokeColor=#6c8ebf;fillColor=#dae8fc;startSize=0;collapsible=0;recursiveResize=0;expand=0;fontSize=16;verticalAlign=bottom;strokeWidth=2;" vertex="1" parent="G27KxX_hMxzYAapSW3-k-22">
          <mxGeometry x="310" width="300" height="174" as="geometry">
            <mxRectangle width="300" height="174" as="alternateBounds" />
          </mxGeometry>
        </mxCell>
        <mxCell id="G27KxX_hMxzYAapSW3-k-26" style="edgeStyle=orthogonalEdgeStyle;rounded=0;orthogonalLoop=1;jettySize=auto;html=1;exitX=0.5;exitY=1;exitDx=0;exitDy=0;entryX=0.5;entryY=0;entryDx=0;entryDy=0;strokeWidth=2;" edge="1" parent="G27KxX_hMxzYAapSW3-k-25" source="G27KxX_hMxzYAapSW3-k-27" target="G27KxX_hMxzYAapSW3-k-28">
          <mxGeometry relative="1" as="geometry" />
        </mxCell>
        <mxCell id="G27KxX_hMxzYAapSW3-k-27" value="Report Daily PV" style="rounded=1;whiteSpace=wrap;html=1;absoluteArcSize=1;arcSize=14;strokeWidth=2;" vertex="1" parent="G27KxX_hMxzYAapSW3-k-25">
          <mxGeometry x="35" y="21" width="100" height="50" as="geometry" />
        </mxCell>
        <mxCell id="G27KxX_hMxzYAapSW3-k-28" value="Raise blockers, if any" style="rounded=1;whiteSpace=wrap;html=1;absoluteArcSize=1;arcSize=14;strokeWidth=2;" vertex="1" parent="G27KxX_hMxzYAapSW3-k-25">
          <mxGeometry x="35" y="101" width="100" height="50" as="geometry" />
        </mxCell>
        <mxCell id="G27KxX_hMxzYAapSW3-k-29" style="swimlane;swimlaneHead=0;swimlaneBody=0;fontStyle=0;connectable=0;strokeColor=#6c8ebf;fillColor=#dae8fc;startSize=0;collapsible=0;recursiveResize=0;expand=0;fontSize=16;verticalAlign=bottom;strokeWidth=2;" vertex="1" parent="G27KxX_hMxzYAapSW3-k-22">
          <mxGeometry x="610" width="310" height="174" as="geometry">
            <mxRectangle width="310" height="174" as="alternateBounds" />
          </mxGeometry>
        </mxCell>
        <mxCell id="G27KxX_hMxzYAapSW3-k-30" style="edgeStyle=orthogonalEdgeStyle;rounded=0;orthogonalLoop=1;jettySize=auto;html=1;exitX=0.5;exitY=1;exitDx=0;exitDy=0;entryX=0.5;entryY=0;entryDx=0;entryDy=0;strokeWidth=2;" edge="1" parent="G27KxX_hMxzYAapSW3-k-29" source="G27KxX_hMxzYAapSW3-k-31" target="G27KxX_hMxzYAapSW3-k-32">
          <mxGeometry relative="1" as="geometry" />
        </mxCell>
        <mxCell id="G27KxX_hMxzYAapSW3-k-31" value="Report Weekly PV" style="rounded=1;whiteSpace=wrap;html=1;absoluteArcSize=1;arcSize=14;strokeWidth=2;" vertex="1" parent="G27KxX_hMxzYAapSW3-k-29">
          <mxGeometry x="40" y="21" width="100" height="50" as="geometry" />
        </mxCell>
        <mxCell id="G27KxX_hMxzYAapSW3-k-32" value="Raise blockers, if any" style="rounded=1;whiteSpace=wrap;html=1;absoluteArcSize=1;arcSize=14;strokeWidth=2;" vertex="1" parent="G27KxX_hMxzYAapSW3-k-29">
          <mxGeometry x="40" y="101" width="100" height="50" as="geometry" />
        </mxCell>
        <mxCell id="G27KxX_hMxzYAapSW3-k-33" value="R&amp;D DevOps (1CP)" style="shape=tableRow;horizontal=0;swimlaneHead=0;swimlaneBody=0;top=0;left=0;strokeColor=#6c8ebf;bottom=0;right=0;dropTarget=0;fontStyle=0;fillColor=#dae8fc;points=[[0,0.5],[1,0.5]];portConstraint=eastwest;startSize=40;collapsible=0;recursiveResize=0;expand=0;fontSize=16;flipV=0;flipH=0;verticalAlign=bottom;" vertex="1" parent="G27KxX_hMxzYAapSW3-k-1">
          <mxGeometry y="557" width="919.6259585293853" height="234" as="geometry" />
        </mxCell>
        <mxCell id="G27KxX_hMxzYAapSW3-k-34" style="swimlane;swimlaneHead=0;swimlaneBody=0;fontStyle=0;connectable=0;strokeColor=#6c8ebf;fillColor=#dae8fc;startSize=0;collapsible=0;recursiveResize=0;expand=0;fontSize=16;verticalAlign=bottom;" vertex="1" parent="G27KxX_hMxzYAapSW3-k-33">
          <mxGeometry x="40" width="270" height="234" as="geometry">
            <mxRectangle width="270" height="234" as="alternateBounds" />
          </mxGeometry>
        </mxCell>
        <mxCell id="G27KxX_hMxzYAapSW3-k-35" value="" style="swimlane;swimlaneHead=0;swimlaneBody=0;fontStyle=0;connectable=0;strokeColor=#6c8ebf;fillColor=#dae8fc;startSize=0;collapsible=0;recursiveResize=0;expand=0;fontSize=16;verticalAlign=bottom;" vertex="1" parent="G27KxX_hMxzYAapSW3-k-33">
          <mxGeometry x="310" width="300" height="234" as="geometry">
            <mxRectangle width="300" height="234" as="alternateBounds" />
          </mxGeometry>
        </mxCell>
        <mxCell id="G27KxX_hMxzYAapSW3-k-40" value="" style="swimlane;swimlaneHead=0;swimlaneBody=0;fontStyle=0;connectable=0;strokeColor=#6c8ebf;fillColor=#dae8fc;startSize=0;collapsible=0;recursiveResize=0;expand=0;fontSize=16;verticalAlign=bottom;" vertex="1" parent="G27KxX_hMxzYAapSW3-k-33">
          <mxGeometry x="610" width="310" height="234" as="geometry">
            <mxRectangle width="310" height="234" as="alternateBounds" />
          </mxGeometry>
        </mxCell>
        <mxCell id="G27KxX_hMxzYAapSW3-k-49" value="Prg Mgr / DevOps" style="shape=tableRow;horizontal=0;swimlaneHead=0;swimlaneBody=0;top=0;left=0;strokeColor=#6c8ebf;bottom=0;right=0;dropTarget=0;fontStyle=0;fillColor=#dae8fc;points=[[0,0.5],[1,0.5]];portConstraint=eastwest;startSize=40;collapsible=0;recursiveResize=0;expand=0;fontSize=16;flipV=0;flipH=0;verticalAlign=bottom;" vertex="1" parent="G27KxX_hMxzYAapSW3-k-1">
          <mxGeometry y="791" width="919.6259585293853" height="197" as="geometry" />
        </mxCell>
        <mxCell id="G27KxX_hMxzYAapSW3-k-50" style="swimlane;swimlaneHead=0;swimlaneBody=0;fontStyle=0;connectable=0;strokeColor=#6c8ebf;fillColor=#dae8fc;startSize=0;collapsible=0;recursiveResize=0;expand=0;fontSize=16;verticalAlign=bottom;" vertex="1" parent="G27KxX_hMxzYAapSW3-k-49">
          <mxGeometry x="40" width="270" height="197" as="geometry">
            <mxRectangle width="270" height="197" as="alternateBounds" />
          </mxGeometry>
        </mxCell>
        <mxCell id="G27KxX_hMxzYAapSW3-k-51" value="" style="swimlane;swimlaneHead=0;swimlaneBody=0;fontStyle=0;connectable=0;strokeColor=#6c8ebf;fillColor=#dae8fc;startSize=0;collapsible=0;recursiveResize=0;expand=0;fontSize=16;verticalAlign=bottom;" vertex="1" parent="G27KxX_hMxzYAapSW3-k-49">
          <mxGeometry x="310" width="300" height="197" as="geometry">
            <mxRectangle width="300" height="197" as="alternateBounds" />
          </mxGeometry>
        </mxCell>
        <mxCell id="G27KxX_hMxzYAapSW3-k-52" value="N+1&lt;div&gt;Green PV&lt;/div&gt;" style="rhombus;whiteSpace=wrap;html=1;" vertex="1" parent="G27KxX_hMxzYAapSW3-k-51">
          <mxGeometry x="136" y="86" width="80" height="80" as="geometry" />
        </mxCell>
        <mxCell id="G27KxX_hMxzYAapSW3-k-53" style="edgeStyle=orthogonalEdgeStyle;rounded=0;orthogonalLoop=1;jettySize=auto;html=1;exitX=0.5;exitY=1;exitDx=0;exitDy=0;entryX=0;entryY=0.5;entryDx=0;entryDy=0;strokeWidth=2;" edge="1" parent="G27KxX_hMxzYAapSW3-k-51" source="G27KxX_hMxzYAapSW3-k-54" target="G27KxX_hMxzYAapSW3-k-52">
          <mxGeometry relative="1" as="geometry" />
        </mxCell>
        <mxCell id="G27KxX_hMxzYAapSW3-k-54" value="Request from Prog Mgr for promotion" style="rounded=1;whiteSpace=wrap;html=1;absoluteArcSize=1;arcSize=14;strokeWidth=2;" vertex="1" parent="G27KxX_hMxzYAapSW3-k-51">
          <mxGeometry x="13" y="48" width="100" height="50" as="geometry" />
        </mxCell>
        <mxCell id="G27KxX_hMxzYAapSW3-k-55" value="" style="swimlane;swimlaneHead=0;swimlaneBody=0;fontStyle=0;connectable=0;strokeColor=#6c8ebf;fillColor=#dae8fc;startSize=0;collapsible=0;recursiveResize=0;expand=0;fontSize=16;verticalAlign=bottom;" vertex="1" parent="G27KxX_hMxzYAapSW3-k-49">
          <mxGeometry x="610" width="310" height="197" as="geometry">
            <mxRectangle width="310" height="197" as="alternateBounds" />
          </mxGeometry>
        </mxCell>
        <mxCell id="G27KxX_hMxzYAapSW3-k-56" value="Prod Promotion&lt;div&gt;N to N+1&lt;/div&gt;" style="rounded=1;whiteSpace=wrap;html=1;absoluteArcSize=1;arcSize=14;strokeWidth=2;" vertex="1" parent="G27KxX_hMxzYAapSW3-k-55">
          <mxGeometry x="40" y="58" width="100" height="60" as="geometry" />
        </mxCell>
        <mxCell id="G27KxX_hMxzYAapSW3-k-57" value="Do not allow manual deployments in prod" style="html=1;dropTarget=0;whiteSpace=wrap;fillColor=#fff2cc;strokeColor=#d6b656;" vertex="1" parent="G27KxX_hMxzYAapSW3-k-55">
          <mxGeometry x="25" y="166" width="260" height="20" as="geometry" />
        </mxCell>
        <mxCell id="G27KxX_hMxzYAapSW3-k-58" style="edgeStyle=orthogonalEdgeStyle;rounded=0;orthogonalLoop=1;jettySize=auto;html=1;exitX=1;exitY=0.5;exitDx=0;exitDy=0;entryX=0;entryY=0.5;entryDx=0;entryDy=0;strokeWidth=2;" edge="1" parent="G27KxX_hMxzYAapSW3-k-49" source="G27KxX_hMxzYAapSW3-k-52" target="G27KxX_hMxzYAapSW3-k-56">
          <mxGeometry relative="1" as="geometry" />
        </mxCell>
        <mxCell id="G27KxX_hMxzYAapSW3-k-59" value="Yes" style="edgeLabel;html=1;align=center;verticalAlign=middle;resizable=0;points=[];" vertex="1" connectable="0" parent="G27KxX_hMxzYAapSW3-k-58">
          <mxGeometry x="-0.273" y="-2" relative="1" as="geometry">
            <mxPoint x="-19" y="-2" as="offset" />
          </mxGeometry>
        </mxCell>
        <mxCell id="G27KxX_hMxzYAapSW3-k-61" style="edgeStyle=orthogonalEdgeStyle;rounded=0;orthogonalLoop=1;jettySize=auto;html=1;exitX=0.5;exitY=1;exitDx=0;exitDy=0;entryX=0.5;entryY=0;entryDx=0;entryDy=0;strokeWidth=2;dashed=1;dashPattern=1 1;" edge="1" parent="G27KxX_hMxzYAapSW3-k-1" source="G27KxX_hMxzYAapSW3-k-28">
          <mxGeometry relative="1" as="geometry">
            <mxPoint x="265" y="218" as="sourcePoint" />
            <mxPoint x="395" y="618.5" as="targetPoint" />
          </mxGeometry>
        </mxCell>
        <mxCell id="G27KxX_hMxzYAapSW3-k-62" style="edgeStyle=orthogonalEdgeStyle;rounded=0;orthogonalLoop=1;jettySize=auto;html=1;strokeWidth=2;dashed=1;dashPattern=1 1;exitX=0.5;exitY=1;exitDx=0;exitDy=0;entryX=0.5;entryY=0;entryDx=0;entryDy=0;" edge="1" parent="G27KxX_hMxzYAapSW3-k-1" source="G27KxX_hMxzYAapSW3-k-32">
          <mxGeometry relative="1" as="geometry">
            <mxPoint x="531" y="559" as="sourcePoint" />
            <mxPoint x="395" y="618.5" as="targetPoint" />
          </mxGeometry>
        </mxCell>
        <mxCell id="G27KxX_hMxzYAapSW3-k-63" style="edgeStyle=orthogonalEdgeStyle;rounded=0;orthogonalLoop=1;jettySize=auto;html=1;exitX=0.5;exitY=0;exitDx=0;exitDy=0;entryX=0.5;entryY=1;entryDx=0;entryDy=0;strokeWidth=2;dashed=1;dashPattern=1 1;" edge="1" parent="G27KxX_hMxzYAapSW3-k-1" source="G27KxX_hMxzYAapSW3-k-56">
          <mxGeometry relative="1" as="geometry">
            <mxPoint x="265" y="218" as="sourcePoint" />
            <mxPoint x="395" y="682.5" as="targetPoint" />
            <Array as="points">
              <mxPoint x="700" y="819" />
              <mxPoint x="395" y="819" />
            </Array>
          </mxGeometry>
        </mxCell>
        <mxCell id="G27KxX_hMxzYAapSW3-k-64" value="Switch version to N+1&amp;nbsp;" style="edgeLabel;html=1;align=center;verticalAlign=middle;resizable=0;points=[];" vertex="1" connectable="0" parent="G27KxX_hMxzYAapSW3-k-63">
          <mxGeometry x="-0.2598" relative="1" as="geometry">
            <mxPoint x="-13" y="-2" as="offset" />
          </mxGeometry>
        </mxCell>
      </root>
    </mxGraphModel>
  </diagram>
</mxfile>
